<svg width="1920" height="1080" viewBox="0 0 1920 1080" fill="none" xmlns="http://www.w3.org/2000/svg">
<g clip-path="url(#clip0_2_7219)">
<rect width="1920" height="1080" fill="#184CFC"/>
<g clip-path="url(#clip1_2_7219)">
<path d="M926.698 463.5C932.145 457.383 936.231 449.906 938.955 441.07C941.679 432.234 943.041 423.398 943.041 413.883C943.041 392.133 936.912 373.781 924.655 358.828C911.036 341.836 893.331 333 871.541 333L752.375 334.359V388.055H862.688C868.817 388.055 874.265 390.773 878.35 395.531C881.755 399.609 883.798 405.047 883.798 411.844C883.798 417.961 881.755 423.398 878.35 427.477C874.946 432.234 869.498 434.273 863.369 434.273H817.746V492.047H863.369C870.179 492.047 874.946 494.086 879.031 498.844C882.436 502.922 883.798 508.359 883.798 514.477C883.798 521.273 881.755 526.711 878.35 530.789C874.265 535.547 869.498 538.266 862.688 538.266H752.375V592.641H871.541C894.012 592.641 911.717 584.484 924.655 567.492C936.231 552.539 942.36 534.188 942.36 513.117C942.36 503.602 940.998 494.086 938.274 485.93C936.231 477.773 932.145 470.297 926.698 463.5Z" fill="white"/>
<path d="M990.707 337.758H1130.98V352.711H1006.37V457.383H1108.51V472.336H1006.37V579.727H1130.98V594.68H990.707V337.758Z" fill="white"/>
<path d="M1172.52 337.758H1247.43C1271.26 337.758 1283.52 340.477 1293.73 345.234C1314.84 356.109 1329.14 377.18 1329.14 406.406C1329.14 443.109 1308.03 470.297 1278.07 477.094V477.773C1278.07 477.773 1280.79 480.492 1284.2 486.609L1342.08 593.32H1322.33L1261.73 479.812H1188.18V593.32H1172.52V337.758ZM1257.64 466.219C1291.69 466.219 1312.8 441.75 1312.8 407.086C1312.8 384.656 1301.22 366.305 1282.83 357.469C1275.34 354.07 1267.17 352.031 1246.74 352.031H1188.18V465.539H1257.64V466.219Z" fill="white"/>
<path d="M1406.77 337.758H1478.95C1517.08 337.758 1545.68 365.625 1545.68 412.523C1545.68 458.742 1517.08 487.969 1478.95 487.969H1420.39V594H1406.77V337.758ZM1477.59 473.016C1509.59 473.016 1530.7 450.586 1530.7 412.523C1530.7 373.781 1509.59 352.711 1477.59 352.711H1419.71V473.695H1477.59V473.016Z" fill="white"/>
<path d="M669.299 349.992L659.766 523.312C659.766 528.07 659.085 531.469 657.723 532.828C656.361 534.187 654.318 535.547 650.232 536.906C648.189 536.906 646.147 536.906 644.785 535.547C642.742 533.508 641.38 529.43 639.337 523.312L610.737 441.75C601.885 416.602 597.799 411.164 586.223 401.648C575.328 393.492 563.071 389.414 548.09 389.414C531.066 389.414 515.404 394.852 502.466 405.047C488.166 416.602 481.357 430.195 479.995 447.867L466.376 522.633C466.376 526.711 465.014 530.109 463.652 532.148C462.29 534.867 459.566 535.547 456.162 535.547C454.119 535.547 452.757 534.187 450.714 532.148C447.99 529.43 447.309 526.031 447.309 521.953L423.476 420L369 434.953L387.386 523.312C392.152 547.102 400.324 565.453 411.9 577.687C422.795 589.242 435.733 594.68 450.714 594.68C469.1 594.68 484.08 590.602 496.338 581.766C510.638 571.57 518.128 556.617 519.49 536.906L533.109 463.5C533.109 459.422 534.471 455.344 536.514 453.305C538.556 450.586 541.28 449.227 544.004 449.227C546.047 449.227 548.09 449.906 550.133 451.945C552.175 453.305 553.537 456.023 554.899 459.422L580.094 536.227C586.223 555.937 594.394 570.211 603.928 579.047C614.823 589.242 627.761 594 644.104 594C662.489 594 677.47 589.922 689.727 581.086C704.027 570.891 711.518 555.937 712.88 536.227L724.456 334.359L669.299 349.992Z" fill="white"/>
</g>
<path d="M543.479 718.443H532.492V712.115H543.479C545.275 712.115 546.73 711.822 547.844 711.236C548.977 710.631 549.807 709.811 550.334 708.775C550.861 707.721 551.125 706.52 551.125 705.172C551.125 703.863 550.861 702.643 550.334 701.51C549.807 700.377 548.977 699.459 547.844 698.756C546.73 698.053 545.275 697.701 543.479 697.701H535.129V734H527.072V691.344H543.479C546.799 691.344 549.631 691.939 551.975 693.131C554.338 694.303 556.135 695.934 557.365 698.023C558.615 700.094 559.24 702.457 559.24 705.113C559.24 707.867 558.615 710.24 557.365 712.232C556.135 714.225 554.338 715.758 551.975 716.832C549.631 717.906 546.799 718.443 543.479 718.443ZM565.568 691.344H581.066C584.309 691.344 587.092 691.832 589.416 692.809C591.74 693.785 593.527 695.23 594.777 697.145C596.027 699.059 596.652 701.412 596.652 704.205C596.652 706.412 596.262 708.326 595.48 709.947C594.699 711.568 593.596 712.926 592.17 714.02C590.764 715.113 589.104 715.973 587.189 716.598L584.67 717.887H570.988L570.93 711.529H581.154C582.814 711.529 584.191 711.236 585.285 710.65C586.379 710.064 587.199 709.254 587.746 708.219C588.312 707.184 588.596 706.002 588.596 704.674C588.596 703.248 588.322 702.018 587.775 700.982C587.229 699.928 586.398 699.117 585.285 698.551C584.172 697.984 582.766 697.701 581.066 697.701H573.625V734H565.568V691.344ZM589.65 734L579.777 714.898L588.303 714.869L598.293 733.59V734H589.65ZM638.254 711.588V713.785C638.254 717.008 637.824 719.908 636.965 722.486C636.105 725.045 634.885 727.223 633.303 729.02C631.721 730.816 629.836 732.193 627.648 733.15C625.461 734.107 623.029 734.586 620.354 734.586C617.717 734.586 615.295 734.107 613.088 733.15C610.9 732.193 609.006 730.816 607.404 729.02C605.803 727.223 604.562 725.045 603.684 722.486C602.805 719.908 602.365 717.008 602.365 713.785V711.588C602.365 708.346 602.805 705.445 603.684 702.887C604.562 700.328 605.793 698.15 607.375 696.354C608.957 694.537 610.842 693.15 613.029 692.193C615.236 691.236 617.658 690.758 620.295 690.758C622.971 690.758 625.402 691.236 627.59 692.193C629.777 693.15 631.662 694.537 633.244 696.354C634.846 698.15 636.076 700.328 636.936 702.887C637.814 705.445 638.254 708.346 638.254 711.588ZM630.109 713.785V711.529C630.109 709.205 629.895 707.164 629.465 705.406C629.035 703.629 628.4 702.135 627.561 700.924C626.721 699.713 625.686 698.805 624.455 698.199C623.225 697.574 621.838 697.262 620.295 697.262C618.732 697.262 617.346 697.574 616.135 698.199C614.943 698.805 613.928 699.713 613.088 700.924C612.248 702.135 611.604 703.629 611.154 705.406C610.725 707.164 610.51 709.205 610.51 711.529V713.785C610.51 716.09 610.725 718.131 611.154 719.908C611.604 721.686 612.248 723.189 613.088 724.42C613.947 725.631 614.982 726.549 616.193 727.174C617.404 727.799 618.791 728.111 620.354 728.111C621.916 728.111 623.303 727.799 624.514 727.174C625.725 726.549 626.74 725.631 627.561 724.42C628.4 723.189 629.035 721.686 629.465 719.908C629.895 718.131 630.109 716.09 630.109 713.785ZM662.482 721.051V691.344H670.539V721.051C670.539 723.883 669.924 726.314 668.693 728.346C667.463 730.357 665.783 731.9 663.654 732.975C661.525 734.049 659.123 734.586 656.447 734.586C653.693 734.586 651.252 734.127 649.123 733.209C646.994 732.271 645.324 730.846 644.113 728.932C642.922 727.018 642.326 724.586 642.326 721.637H650.412C650.412 723.238 650.656 724.527 651.145 725.504C651.633 726.48 652.326 727.184 653.225 727.613C654.143 728.043 655.217 728.258 656.447 728.258C657.639 728.258 658.684 727.984 659.582 727.438C660.5 726.871 661.213 726.051 661.721 724.977C662.229 723.902 662.482 722.594 662.482 721.051ZM706.809 727.672V734H684.133V727.672H706.809ZM686.594 691.344V734H678.537V691.344H686.594ZM703.85 708.951V715.133H684.133V708.951H703.85ZM706.721 691.344V697.701H684.133V691.344H706.721ZM731.301 691.344V734H723.273V691.344H731.301ZM744.543 691.344V697.701H710.178V691.344H744.543ZM783.625 711.588V713.785C783.625 717.008 783.195 719.908 782.336 722.486C781.477 725.045 780.256 727.223 778.674 729.02C777.092 730.816 775.207 732.193 773.02 733.15C770.832 734.107 768.4 734.586 765.725 734.586C763.088 734.586 760.666 734.107 758.459 733.15C756.271 732.193 754.377 730.816 752.775 729.02C751.174 727.223 749.934 725.045 749.055 722.486C748.176 719.908 747.736 717.008 747.736 713.785V711.588C747.736 708.346 748.176 705.445 749.055 702.887C749.934 700.328 751.164 698.15 752.746 696.354C754.328 694.537 756.213 693.15 758.4 692.193C760.607 691.236 763.029 690.758 765.666 690.758C768.342 690.758 770.773 691.236 772.961 692.193C775.148 693.15 777.033 694.537 778.615 696.354C780.217 698.15 781.447 700.328 782.307 702.887C783.186 705.445 783.625 708.346 783.625 711.588ZM775.48 713.785V711.529C775.48 709.205 775.266 707.164 774.836 705.406C774.406 703.629 773.771 702.135 772.932 700.924C772.092 699.713 771.057 698.805 769.826 698.199C768.596 697.574 767.209 697.262 765.666 697.262C764.104 697.262 762.717 697.574 761.506 698.199C760.314 698.805 759.299 699.713 758.459 700.924C757.619 702.135 756.975 703.629 756.525 705.406C756.096 707.164 755.881 709.205 755.881 711.529V713.785C755.881 716.09 756.096 718.131 756.525 719.908C756.975 721.686 757.619 723.189 758.459 724.42C759.318 725.631 760.354 726.549 761.564 727.174C762.775 727.799 764.162 728.111 765.725 728.111C767.287 728.111 768.674 727.799 769.885 727.174C771.096 726.549 772.111 725.631 772.932 724.42C773.771 723.189 774.406 721.686 774.836 719.908C775.266 718.131 775.48 716.09 775.48 713.785ZM820.217 712.672V718.795H804.191V712.672H820.217ZM858.771 718.443H847.785V712.115H858.771C860.568 712.115 862.023 711.822 863.137 711.236C864.27 710.631 865.1 709.811 865.627 708.775C866.154 707.721 866.418 706.52 866.418 705.172C866.418 703.863 866.154 702.643 865.627 701.51C865.1 700.377 864.27 699.459 863.137 698.756C862.023 698.053 860.568 697.701 858.771 697.701H850.422V734H842.365V691.344H858.771C862.092 691.344 864.924 691.939 867.268 693.131C869.631 694.303 871.428 695.934 872.658 698.023C873.908 700.094 874.533 702.457 874.533 705.113C874.533 707.867 873.908 710.24 872.658 712.232C871.428 714.225 869.631 715.758 867.268 716.832C864.924 717.906 862.092 718.443 858.771 718.443ZM880.861 691.344H896.359C899.602 691.344 902.385 691.832 904.709 692.809C907.033 693.785 908.82 695.23 910.07 697.145C911.32 699.059 911.945 701.412 911.945 704.205C911.945 706.412 911.555 708.326 910.773 709.947C909.992 711.568 908.889 712.926 907.463 714.02C906.057 715.113 904.396 715.973 902.482 716.598L899.963 717.887H886.281L886.223 711.529H896.447C898.107 711.529 899.484 711.236 900.578 710.65C901.672 710.064 902.492 709.254 903.039 708.219C903.605 707.184 903.889 706.002 903.889 704.674C903.889 703.248 903.615 702.018 903.068 700.982C902.521 699.928 901.691 699.117 900.578 698.551C899.465 697.984 898.059 697.701 896.359 697.701H888.918V734H880.861V691.344ZM904.943 734L895.07 714.898L903.596 714.869L913.586 733.59V734H904.943ZM947.277 727.672V734H924.602V727.672H947.277ZM927.062 691.344V734H919.006V691.344H927.062ZM944.318 708.951V715.133H924.602V708.951H944.318ZM947.189 691.344V697.701H924.602V691.344H947.189ZM965.617 734H956.418L956.477 727.672H965.617C968.098 727.672 970.178 727.125 971.857 726.031C973.537 724.918 974.807 723.326 975.666 721.256C976.525 719.166 976.955 716.666 976.955 713.756V711.559C976.955 709.312 976.711 707.33 976.223 705.611C975.734 703.893 975.012 702.447 974.055 701.275C973.117 700.104 971.955 699.215 970.568 698.609C969.182 698.004 967.59 697.701 965.793 697.701H956.242V691.344H965.793C968.645 691.344 971.242 691.822 973.586 692.779C975.949 693.736 977.99 695.113 979.709 696.91C981.447 698.688 982.775 700.816 983.693 703.297C984.631 705.777 985.1 708.551 985.1 711.617V713.756C985.1 716.803 984.631 719.576 983.693 722.076C982.775 724.557 981.447 726.686 979.709 728.463C977.99 730.24 975.939 731.607 973.557 732.564C971.174 733.521 968.527 734 965.617 734ZM960.93 691.344V734H952.873V691.344H960.93ZM1000.54 691.344V734H992.482V691.344H1000.54ZM1034.2 719.967H1042.26C1042.04 722.818 1041.25 725.348 1039.88 727.555C1038.52 729.742 1036.61 731.461 1034.17 732.711C1031.73 733.961 1028.77 734.586 1025.29 734.586C1022.62 734.586 1020.21 734.117 1018.06 733.18C1015.93 732.223 1014.1 730.865 1012.58 729.107C1011.08 727.33 1009.92 725.201 1009.12 722.721C1008.32 720.221 1007.92 717.418 1007.92 714.312V711.061C1007.92 707.955 1008.33 705.152 1009.15 702.652C1009.97 700.152 1011.14 698.023 1012.67 696.266C1014.21 694.488 1016.06 693.121 1018.21 692.164C1020.37 691.207 1022.79 690.729 1025.47 690.729C1028.95 690.729 1031.89 691.373 1034.29 692.662C1036.69 693.932 1038.56 695.68 1039.88 697.906C1041.21 700.133 1042.01 702.691 1042.29 705.582H1034.23C1034.07 703.785 1033.68 702.262 1033.06 701.012C1032.45 699.762 1031.54 698.814 1030.3 698.17C1029.09 697.506 1027.48 697.174 1025.47 697.174C1023.91 697.174 1022.53 697.467 1021.34 698.053C1020.17 698.639 1019.19 699.518 1018.41 700.689C1017.63 701.842 1017.04 703.287 1016.65 705.025C1016.26 706.744 1016.07 708.736 1016.07 711.002V714.312C1016.07 716.48 1016.24 718.424 1016.59 720.143C1016.95 721.861 1017.49 723.316 1018.23 724.508C1018.98 725.699 1019.93 726.607 1021.11 727.232C1022.28 727.857 1023.67 728.17 1025.29 728.17C1027.27 728.17 1028.87 727.857 1030.1 727.232C1031.35 726.607 1032.3 725.689 1032.94 724.479C1033.61 723.268 1034.03 721.764 1034.2 719.967ZM1022.45 734H1028.22L1027.9 735.67C1029.02 735.865 1030.03 736.334 1030.95 737.076C1031.87 737.818 1032.33 739.039 1032.33 740.738C1032.33 741.754 1032.11 742.672 1031.68 743.492C1031.27 744.312 1030.65 745.016 1029.81 745.602C1028.97 746.207 1027.92 746.666 1026.67 746.979C1025.44 747.291 1024.01 747.447 1022.37 747.447L1022.16 743.111C1022.86 743.111 1023.49 743.023 1024.04 742.848C1024.6 742.672 1025.04 742.389 1025.35 741.998C1025.69 741.627 1025.85 741.148 1025.85 740.562C1025.85 739.977 1025.71 739.518 1025.41 739.186C1025.12 738.873 1024.65 738.629 1024.01 738.453C1023.38 738.297 1022.56 738.189 1021.54 738.131L1022.45 734ZM1065.46 697.818L1053.3 734H1044.78L1060.71 691.344H1066.16L1065.46 697.818ZM1075.63 734L1063.41 697.818L1062.68 691.344H1068.16L1084.18 734H1075.63ZM1075.07 718.15V724.508H1052.19V718.15H1075.07ZM1070.82 680.152L1075.42 680.475C1075.42 681.9 1075.13 683.189 1074.54 684.342C1073.98 685.475 1073.21 686.373 1072.23 687.037C1071.25 687.701 1070.13 688.033 1068.86 688.033C1067.92 688.033 1067.11 687.906 1066.43 687.652C1065.76 687.398 1065.15 687.096 1064.58 686.744C1064.04 686.393 1063.47 686.09 1062.88 685.836C1062.3 685.562 1061.61 685.426 1060.83 685.426C1060.13 685.426 1059.52 685.689 1059.02 686.217C1058.53 686.744 1058.28 687.457 1058.28 688.355L1053.65 688.121C1053.65 686.715 1053.94 685.436 1054.5 684.283C1055.07 683.131 1055.84 682.213 1056.82 681.529C1057.81 680.846 1058.95 680.504 1060.22 680.504C1061.02 680.504 1061.74 680.631 1062.38 680.885C1063.05 681.139 1063.68 681.441 1064.29 681.793C1064.89 682.125 1065.51 682.428 1066.13 682.701C1066.78 682.955 1067.47 683.082 1068.21 683.082C1068.94 683.082 1069.55 682.818 1070.06 682.291C1070.57 681.764 1070.82 681.051 1070.82 680.152ZM1122.59 711.588V713.785C1122.59 717.008 1122.16 719.908 1121.3 722.486C1120.44 725.045 1119.22 727.223 1117.64 729.02C1116.06 730.816 1114.17 732.193 1111.98 733.15C1109.8 734.107 1107.37 734.586 1104.69 734.586C1102.05 734.586 1099.63 734.107 1097.42 733.15C1095.24 732.193 1093.34 730.816 1091.74 729.02C1090.14 727.223 1088.9 725.045 1088.02 722.486C1087.14 719.908 1086.7 717.008 1086.7 713.785V711.588C1086.7 708.346 1087.14 705.445 1088.02 702.887C1088.9 700.328 1090.13 698.15 1091.71 696.354C1093.29 694.537 1095.18 693.15 1097.37 692.193C1099.57 691.236 1101.99 690.758 1104.63 690.758C1107.31 690.758 1109.74 691.236 1111.93 692.193C1114.11 693.15 1116 694.537 1117.58 696.354C1119.18 698.15 1120.41 700.328 1121.27 702.887C1122.15 705.445 1122.59 708.346 1122.59 711.588ZM1114.45 713.785V711.529C1114.45 709.205 1114.23 707.164 1113.8 705.406C1113.37 703.629 1112.74 702.135 1111.9 700.924C1111.06 699.713 1110.02 698.805 1108.79 698.199C1107.56 697.574 1106.17 697.262 1104.63 697.262C1103.07 697.262 1101.68 697.574 1100.47 698.199C1099.28 698.805 1098.26 699.713 1097.42 700.924C1096.58 702.135 1095.94 703.629 1095.49 705.406C1095.06 707.164 1094.85 709.205 1094.85 711.529V713.785C1094.85 716.09 1095.06 718.131 1095.49 719.908C1095.94 721.686 1096.58 723.189 1097.42 724.42C1098.28 725.631 1099.32 726.549 1100.53 727.174C1101.74 727.799 1103.13 728.111 1104.69 728.111C1106.25 728.111 1107.64 727.799 1108.85 727.174C1110.06 726.549 1111.08 725.631 1111.9 724.42C1112.74 723.189 1113.37 721.686 1113.8 719.908C1114.23 718.131 1114.45 716.09 1114.45 713.785ZM1157.1 734H1147.9L1147.96 727.672H1157.1C1159.58 727.672 1161.66 727.125 1163.34 726.031C1165.02 724.918 1166.29 723.326 1167.15 721.256C1168.01 719.166 1168.44 716.666 1168.44 713.756V711.559C1168.44 709.312 1168.2 707.33 1167.71 705.611C1167.22 703.893 1166.5 702.447 1165.54 701.275C1164.6 700.104 1163.44 699.215 1162.05 698.609C1160.67 698.004 1159.07 697.701 1157.28 697.701H1147.73V691.344H1157.28C1160.13 691.344 1162.73 691.822 1165.07 692.779C1167.43 693.736 1169.47 695.113 1171.19 696.91C1172.93 698.688 1174.26 700.816 1175.18 703.297C1176.12 705.777 1176.58 708.551 1176.58 711.617V713.756C1176.58 716.803 1176.12 719.576 1175.18 722.076C1174.26 724.557 1172.93 726.686 1171.19 728.463C1169.47 730.24 1167.42 731.607 1165.04 732.564C1162.66 733.521 1160.01 734 1157.1 734ZM1152.41 691.344V734H1144.36V691.344H1152.41ZM1211.71 727.672V734H1189.04V727.672H1211.71ZM1191.5 691.344V734H1183.44V691.344H1191.5ZM1208.75 708.951V715.133H1189.04V708.951H1208.75ZM1211.62 691.344V697.701H1189.04V691.344H1211.62ZM1247.25 725.65L1257.88 691.344H1266.82L1251.76 734H1245.81L1247.25 725.65ZM1237.43 691.344L1248.01 725.65L1249.53 734H1243.53L1228.53 691.344H1237.43ZM1299.48 727.672V734H1276.81V727.672H1299.48ZM1279.27 691.344V734H1271.21V691.344H1279.27ZM1296.53 708.951V715.133H1276.81V708.951H1296.53ZM1299.4 691.344V697.701H1276.81V691.344H1299.4ZM1339.36 691.344V734H1331.27L1313.14 704.41V734H1305.08V691.344H1313.14L1331.33 720.963V691.344H1339.36ZM1360.3 734H1351.11L1351.16 727.672H1360.3C1362.79 727.672 1364.87 727.125 1366.54 726.031C1368.22 724.918 1369.49 723.326 1370.35 721.256C1371.21 719.166 1371.64 716.666 1371.64 713.756V711.559C1371.64 709.312 1371.4 707.33 1370.91 705.611C1370.42 703.893 1369.7 702.447 1368.74 701.275C1367.8 700.104 1366.64 699.215 1365.26 698.609C1363.87 698.004 1362.28 697.701 1360.48 697.701H1350.93V691.344H1360.48C1363.33 691.344 1365.93 691.822 1368.27 692.779C1370.64 693.736 1372.68 695.113 1374.4 696.91C1376.13 698.688 1377.46 700.816 1378.38 703.297C1379.32 705.777 1379.79 708.551 1379.79 711.617V713.756C1379.79 716.803 1379.32 719.576 1378.38 722.076C1377.46 724.557 1376.13 726.686 1374.4 728.463C1372.68 730.24 1370.63 731.607 1368.24 732.564C1365.86 733.521 1363.21 734 1360.3 734ZM1355.62 691.344V734H1347.56V691.344H1355.62ZM1402.96 697.818L1390.8 734H1382.28L1398.21 691.344H1403.66L1402.96 697.818ZM1413.13 734L1400.91 697.818L1400.18 691.344H1405.66L1421.68 734H1413.13ZM1412.57 718.15V724.508H1389.69V718.15H1412.57ZM1448.4 722.926C1448.4 722.105 1448.27 721.373 1448.02 720.729C1447.79 720.064 1447.35 719.469 1446.7 718.941C1446.08 718.395 1445.19 717.867 1444.04 717.359C1442.9 716.832 1441.44 716.285 1439.64 715.719C1437.65 715.094 1435.79 714.391 1434.07 713.609C1432.36 712.828 1430.84 711.92 1429.53 710.885C1428.24 709.85 1427.24 708.658 1426.52 707.311C1425.79 705.943 1425.43 704.361 1425.43 702.564C1425.43 700.807 1425.8 699.205 1426.54 697.76C1427.31 696.314 1428.38 695.074 1429.77 694.039C1431.15 692.984 1432.79 692.174 1434.66 691.607C1436.55 691.041 1438.64 690.758 1440.93 690.758C1444.09 690.758 1446.83 691.334 1449.13 692.486C1451.46 693.639 1453.25 695.201 1454.52 697.174C1455.79 699.146 1456.43 701.363 1456.43 703.824H1448.4C1448.4 702.496 1448.12 701.324 1447.55 700.309C1447 699.293 1446.16 698.492 1445.03 697.906C1443.92 697.32 1442.51 697.027 1440.81 697.027C1439.17 697.027 1437.8 697.271 1436.71 697.76C1435.64 698.248 1434.83 698.912 1434.28 699.752C1433.75 700.592 1433.49 701.529 1433.49 702.564C1433.49 703.346 1433.67 704.049 1434.04 704.674C1434.42 705.279 1434.97 705.855 1435.71 706.402C1436.46 706.93 1437.38 707.428 1438.47 707.896C1439.58 708.346 1440.87 708.795 1442.34 709.244C1444.68 709.947 1446.73 710.729 1448.49 711.588C1450.27 712.447 1451.74 713.424 1452.91 714.518C1454.1 715.611 1454.99 716.842 1455.58 718.209C1456.18 719.576 1456.49 721.129 1456.49 722.867C1456.49 724.703 1456.12 726.344 1455.4 727.789C1454.68 729.234 1453.64 730.465 1452.3 731.48C1450.95 732.496 1449.33 733.268 1447.43 733.795C1445.56 734.322 1443.46 734.586 1441.13 734.586C1439.06 734.586 1437.01 734.312 1434.98 733.766C1432.97 733.199 1431.14 732.359 1429.5 731.246C1427.86 730.113 1426.55 728.688 1425.58 726.969C1424.6 725.23 1424.11 723.199 1424.11 720.875H1432.2C1432.2 722.223 1432.41 723.375 1432.84 724.332C1433.29 725.27 1433.92 726.041 1434.72 726.646C1435.54 727.232 1436.5 727.662 1437.59 727.936C1438.68 728.209 1439.87 728.346 1441.13 728.346C1442.78 728.346 1444.12 728.121 1445.18 727.672C1446.25 727.203 1447.05 726.559 1447.58 725.738C1448.13 724.918 1448.4 723.98 1448.4 722.926Z" fill="white"/>
</g>
<defs>
<clipPath id="clip0_2_7219">
<rect width="1920" height="1080" fill="white"/>
</clipPath>
<clipPath id="clip1_2_7219">
<rect width="1176" height="261" fill="white" transform="translate(369 333)"/>
</clipPath>
</defs>
</svg>
